<svg width="60" height="60" viewBox="0 0 60 60" fill="none" xmlns="http://www.w3.org/2000/svg">
<rect width="60" height="60" rx="4" fill="#82B3D3"/>
<path d="M33.2808 25.7838C33.2808 26.4638 33.1541 27.1504 32.9008 27.8438C32.6608 28.5371 32.3474 29.2171 31.9608 29.8838C31.5874 30.5504 31.1674 31.1971 30.7008 31.8238C30.2474 32.4371 29.8008 33.0038 29.3608 33.5238L28.3008 34.3438V34.4438L29.7408 34.1638H33.5808V36.3638H25.1608V35.0238C25.4808 34.6904 25.8408 34.3038 26.2408 33.8638C26.6408 33.4104 27.0408 32.9371 27.4408 32.4438C27.8541 31.9371 28.2541 31.4171 28.6408 30.8838C29.0274 30.3504 29.3741 29.8171 29.6808 29.2838C29.9874 28.7371 30.2274 28.2104 30.4008 27.7038C30.5874 27.1971 30.6808 26.7171 30.6808 26.2638C30.6808 25.7171 30.5208 25.2704 30.2008 24.9238C29.8941 24.5638 29.4008 24.3838 28.7208 24.3838C28.2941 24.3838 27.8541 24.4771 27.4008 24.6638C26.9608 24.8371 26.5874 25.0638 26.2808 25.3438L25.2408 23.5038C25.7608 23.0771 26.3474 22.7371 27.0008 22.4838C27.6674 22.2171 28.4474 22.0838 29.3408 22.0838C29.9141 22.0838 30.4408 22.1638 30.9208 22.3238C31.4008 22.4838 31.8141 22.7171 32.1608 23.0238C32.5074 23.3304 32.7808 23.7171 32.9808 24.1838C33.1808 24.6371 33.2808 25.1704 33.2808 25.7838Z" fill="white"/>
</svg>
